<svg width="102" height="56" viewBox="0 0 102 56" fill="none" xmlns="http://www.w3.org/2000/svg">
<g clip-path="url(#clip0_326_1170)">
<path d="M0.245361 45.246V36.9798H3.2182C3.9935 36.9798 4.61826 37.168 5.09223 37.5445C5.5662 37.9207 5.80299 38.4427 5.80299 39.1102C5.80299 39.4984 5.7131 39.8476 5.53282 40.1582C5.35281 40.4686 5.10599 40.7092 4.79251 40.88V40.9033C5.23121 41.0275 5.5662 41.2721 5.79723 41.6367C6.02833 42.0015 6.14383 42.4053 6.14383 42.8476C6.14383 43.6317 5.86976 44.2273 5.32132 44.6349C4.77296 45.0422 4.08756 45.246 3.26505 45.246H0.245361ZM1.76097 40.356H3.2298C3.55094 40.356 3.80382 40.2572 3.98773 40.0593C4.17184 39.8612 4.26396 39.6072 4.26396 39.2965C4.26396 38.9938 4.17184 38.7474 3.98773 38.5572C3.80382 38.3672 3.54332 38.272 3.20638 38.272H1.76097V40.356ZM1.76097 43.9539H3.38249C3.75857 43.9539 4.0544 43.8432 4.2698 43.6219C4.48513 43.4006 4.59288 43.1116 4.59288 42.7544C4.59288 42.4053 4.48513 42.1201 4.2698 41.8987C4.0544 41.6775 3.75857 41.5669 3.38249 41.5669H1.76097V43.9539ZM10.5372 45.246V36.9798H13.2867C13.9917 36.9798 14.5167 37.0535 14.8613 37.2008C15.3 37.3794 15.6447 37.6627 15.8953 38.0507C16.146 38.4389 16.2713 38.9086 16.2713 39.4596C16.2713 39.9642 16.146 40.424 15.8953 40.8393C15.6447 41.2546 15.3039 41.5474 14.8729 41.7182V41.7417C14.9435 41.827 15.0337 41.9706 15.1431 42.1722L16.8586 45.246H15.1549L13.5101 42.1608H12.0529V45.246H10.5372ZM12.0529 40.8568H13.4161C13.8232 40.8568 14.1445 40.7385 14.3794 40.5016C14.6146 40.2648 14.7321 39.9449 14.7321 39.5411C14.7321 38.9667 14.5126 38.5904 14.0739 38.4117C13.8625 38.3185 13.5569 38.272 13.1574 38.272H12.0529V40.8568ZM19.9949 45.246L22.9205 36.9798H24.5186L27.4443 45.246H25.8932L25.1767 43.1272H22.2507L21.5458 45.246H19.9949ZM22.6269 41.9045H24.8006L24.0603 39.6925L23.7314 38.4117H23.708C23.5824 38.955 23.4727 39.382 23.3787 39.6925L22.6269 41.9045ZM31.1679 42.2772V36.9798H32.6838V42.2655C32.6838 42.8165 32.8501 43.2454 33.1832 43.5519C33.516 43.8587 33.9646 44.012 34.5284 44.012C35.0925 44.012 35.5408 43.8587 35.8739 43.5519C36.2067 43.2454 36.3733 42.8165 36.3733 42.2655V36.9798H37.8889V42.2772C37.8889 43.2009 37.5814 43.9498 36.9666 44.5243C36.3517 45.0985 35.5428 45.3857 34.5402 45.3857C33.5298 45.3857 32.715 45.0985 32.0962 44.5243C31.4773 43.9498 31.1679 43.2009 31.1679 42.2772ZM42.67 45.246V36.9798H44.1856L47.3464 41.7532C47.4405 41.9007 47.5444 42.0813 47.6577 42.2947C47.7714 42.5081 47.8634 42.6846 47.934 42.8244L48.0396 43.0339H48.0633C48.0085 42.5061 47.9809 42.0791 47.9809 41.7532V36.9798H49.485V45.246H47.9809L44.8203 40.4842C44.7263 40.3366 44.6224 40.1563 44.5087 39.9427C44.3952 39.7293 44.3034 39.5528 44.2327 39.4129L44.1269 39.2034H44.1034C44.1583 39.7312 44.1856 40.1582 44.1856 40.4842V45.246H42.67ZM53.8784 41.0546C53.8784 39.8593 54.2836 38.858 55.0945 38.0507C55.9052 37.2437 56.9372 36.8399 58.1906 36.8399C59.444 36.8399 60.476 37.2437 61.2867 38.0507C62.0975 38.858 62.5028 39.8593 62.5028 41.0546C62.5028 42.281 62.0975 43.3096 61.2867 44.1399C60.476 44.9705 59.444 45.3857 58.1906 45.3857C56.9372 45.3857 55.9052 44.9705 55.0945 44.1399C54.2836 43.3096 53.8784 42.281 53.8784 41.0546ZM55.4412 41.0546C55.4412 41.9007 55.7017 42.605 56.2225 43.1678C56.7434 43.7307 57.3996 44.012 58.1906 44.012C58.9818 44.012 59.6378 43.7307 60.1587 43.1678C60.6798 42.605 60.9401 41.9007 60.9401 41.0546C60.9401 40.2475 60.6798 39.5722 60.1587 39.0287C59.6378 38.4854 58.9818 38.2139 58.1906 38.2139C57.3996 38.2139 56.7434 38.4854 56.2225 39.0287C55.7017 39.5722 55.4412 40.2475 55.4412 41.0546ZM68.7527 45.246L65.7446 36.9798H67.3779L69.2109 42.3703L69.5281 43.5812H69.5518C69.6612 43.0922 69.767 42.6887 69.8689 42.3703L71.7255 36.9798H73.3351L70.3271 45.246H68.7527ZM77.2585 45.246V36.9798H78.7741V45.246H77.2585ZM83.1676 41.0778C83.1676 39.867 83.571 38.858 84.3777 38.0507C85.1845 37.2437 86.2107 36.8399 87.4564 36.8399C88.7253 36.8399 89.7514 37.2164 90.5348 37.9693L89.8063 39.087C89.5009 38.831 89.1424 38.6212 88.7311 38.4583C88.3199 38.2953 87.9185 38.2139 87.5267 38.2139C86.6494 38.2139 85.964 38.4854 85.4704 39.0287C84.9771 39.5722 84.7304 40.2475 84.7304 41.0546C84.7304 41.8696 84.981 42.5662 85.4823 43.1446C85.9836 43.7227 86.669 44.012 87.5385 44.012C88.4316 44.012 89.2384 43.6626 89.9591 42.964L90.7581 44.047C89.8728 44.9395 88.7802 45.3857 87.4798 45.3857C86.1873 45.3857 85.1454 44.9783 84.3543 44.1634C83.563 43.3484 83.1676 42.3198 83.1676 41.0778ZM94.9164 45.246V36.9798H96.432V40.4842H100.251V36.9798H101.755V45.246H100.251V41.7765H96.432V45.246H94.9164Z" fill="black"/>
<path fill-rule="evenodd" clip-rule="evenodd" d="M56.3876 6.73567C54.061 5.6752 48.7254 5.28133 45.633 6.7163L45.288 7.10026C45.0108 7.50355 44.7959 7.9661 44.7969 8.4628C44.7972 8.59674 44.8099 8.7306 44.8347 8.86226C45.0288 9.89142 45.9181 10.6629 46.804 11.1422C48.0435 11.813 49.5472 12.0954 50.9506 12.0925C52.3539 12.0898 53.8565 11.8015 55.0932 11.1257C55.9771 10.6427 56.8633 9.86773 57.0532 8.83778C57.0775 8.70608 57.0897 8.57207 57.0894 8.43816C57.0885 7.92352 56.9094 7.44534 56.6059 7.03267L56.3876 6.73567ZM44.9845 6.86711C43.1416 5.67506 37.1807 4.8819 34.7196 4.71732C29.268 4.35274 30.1887 1.69184 25.085 0.243158L25.3957 0.392942C28.6153 1.18651 28.5614 3.99622 31.1679 5.14591C34.8892 6.78727 41.4701 6.71623 44.6426 10.4917C44.6292 10.6564 44.6227 10.8324 44.6223 11.0169L44.6326 11.0168C44.78 11.0148 44.9274 11.0255 45.0733 11.0468L45.3465 11.0659L45.3561 11.0678C48.2974 11.6513 50.4328 15.8295 50.9734 18.4882C50.985 18.5455 50.9964 18.6058 51.0074 18.6682C51.0183 18.6058 51.0297 18.5455 51.0413 18.4882C51.5819 15.8293 53.7174 11.6513 56.6589 11.0678L56.6684 11.0659L56.9413 11.0469C57.069 11.0282 57.1979 11.0178 57.3269 11.0167C57.3287 10.8507 57.326 10.691 57.3182 10.5397C60.4751 6.71597 67.0952 6.7941 70.8321 5.14591C73.4386 3.99622 73.3847 1.18651 76.6044 0.392942L76.9151 0.243158C71.8114 1.69184 72.7321 4.35274 67.2804 4.71732C64.7813 4.88438 58.6599 5.59631 56.9184 6.81284C57.2624 7.29413 57.4715 7.84354 57.4727 8.43738C57.473 8.59445 57.4588 8.75153 57.4303 8.906C57.2183 10.0561 56.2692 10.9169 55.2783 11.4583C53.9843 12.1653 52.4201 12.4695 50.9513 12.4724C49.4825 12.4753 47.9171 12.1774 46.6203 11.4756C45.6273 10.9383 44.6747 10.0812 44.458 8.93203C44.4288 8.77758 44.414 8.62065 44.4136 8.46358C44.4124 7.88699 44.6483 7.35515 44.9712 6.88633L44.9845 6.86711ZM44.6268 11.3185C44.692 13.3764 45.434 16.3056 46.2085 17.4881C47.5133 19.4802 46.185 21.4752 47.8524 23.8367C48.2133 24.3478 48.6484 24.5008 49.0818 24.4819L49.3996 24.2703C51.7885 22.6706 50.4404 17.676 49.4208 15.5974C48.4299 13.577 46.9906 11.7188 44.6268 11.3185ZM50.0592 24.2112C50.4789 24.0212 50.8262 23.7995 51.0023 23.788C51.1844 23.7999 51.5447 24.0367 51.9778 24.2307C51.4668 23.7905 51.1668 23.0601 51.0074 22.2453C50.8504 23.0484 50.5567 23.7692 50.0592 24.2112ZM52.9405 24.4831C53.3552 24.4906 53.7705 24.3316 54.1199 23.8367C55.7874 21.4752 54.4591 19.4802 55.7638 17.4881C56.5212 16.3319 57.2329 13.4207 57.3187 11.3309C54.9962 11.7556 53.5753 13.5967 52.5939 15.5974C51.5739 17.6769 50.2265 22.6692 52.6152 24.2703L52.9405 24.4831Z" fill="black"/>
<path d="M38.1526 55.6841V51.4225H40.5691V51.7983H38.5748V53.3502H40.2082V53.7261H38.5748V55.3082H40.6855V55.6841H38.1526ZM41.2483 55.2113L41.4991 54.89C41.6419 55.0274 41.8122 55.1396 42.0099 55.2264C42.2078 55.3133 42.4086 55.3567 42.6126 55.3567C42.8695 55.3567 43.0786 55.2901 43.2397 55.1567C43.4008 55.0233 43.4814 54.8475 43.4814 54.6293C43.4814 54.4838 43.4415 54.3555 43.362 54.2444C43.2825 54.1332 43.1805 54.0402 43.0561 53.9655C42.9317 53.8907 42.7931 53.82 42.6402 53.7533C42.4872 53.6866 42.3341 53.617 42.1813 53.5442C42.0283 53.4715 41.8897 53.3917 41.7652 53.3047C41.6409 53.2179 41.5388 53.1047 41.4594 52.9652C41.3798 52.8259 41.3401 52.6672 41.3401 52.4894C41.3401 52.1459 41.4685 51.87 41.7255 51.662C41.9824 51.4538 42.3047 51.3498 42.6921 51.3498C43.153 51.3498 43.5322 51.4871 43.83 51.7619L43.622 52.1136C43.5037 52.0044 43.3589 51.9165 43.1877 51.8499C43.0164 51.7832 42.845 51.7498 42.6737 51.7498C42.4209 51.7498 42.2078 51.8145 42.0344 51.9438C41.8611 52.0731 41.7745 52.2469 41.7745 52.4652C41.7745 52.6026 41.8142 52.7248 41.8937 52.8318C41.9733 52.939 42.0752 53.0269 42.1996 53.0956C42.324 53.1643 42.4627 53.231 42.6157 53.2956C42.7686 53.3603 42.9215 53.429 43.0745 53.5018C43.2274 53.5745 43.3661 53.6553 43.4905 53.7443C43.6149 53.8332 43.7168 53.9493 43.7964 54.0928C43.8759 54.2362 43.9157 54.401 43.9157 54.5868C43.9157 54.9263 43.7974 55.2062 43.5608 55.4265C43.3243 55.6467 43.0041 55.7568 42.6003 55.7568C42.0661 55.7568 41.6154 55.575 41.2483 55.2113ZM45.8734 55.6841V51.7983H44.3317V51.4225H47.8434V51.7983H46.2955V55.6841H45.8734ZM48.0085 55.6841V55.181H48.5102V55.6841H48.0085ZM50.8717 55.6841C50.8554 55.5548 50.8473 55.4638 50.8473 55.4113C50.8473 55.2093 50.888 55.0204 50.9695 54.8446C51.0512 54.6688 51.1562 54.5172 51.2847 54.3899C51.4131 54.2626 51.5569 54.1414 51.716 54.0261C51.875 53.9109 52.033 53.8008 52.1901 53.6958C52.3471 53.5907 52.4899 53.4846 52.6183 53.3775C52.7468 53.2704 52.8518 53.1471 52.9334 53.0077C53.015 52.8683 53.0558 52.7218 53.0558 52.5682C53.0558 52.3298 52.9732 52.1338 52.808 51.9802C52.6429 51.8266 52.4277 51.7498 52.1625 51.7498C51.9668 51.7498 51.7843 51.8034 51.615 51.9105C51.4458 52.0175 51.3061 52.158 51.1959 52.3318L50.8839 52.1197C51.0104 51.8933 51.1888 51.7084 51.4193 51.5649C51.6497 51.4215 51.9056 51.3498 52.1871 51.3498C52.5827 51.3498 52.8998 51.4629 53.1383 51.6892C53.377 51.9155 53.4962 52.2005 53.4962 52.5439C53.4962 52.738 53.4565 52.9188 53.377 53.0866C53.2974 53.2542 53.1934 53.3997 53.065 53.523C52.9365 53.6462 52.7948 53.7634 52.6397 53.8746C52.4848 53.9857 52.3298 54.0928 52.1748 54.1959C52.0198 54.2989 51.8781 54.4041 51.7496 54.5111C51.6212 54.6182 51.5161 54.7394 51.4345 54.8748C51.353 55.0102 51.3122 55.1546 51.3122 55.3082H53.5635V55.6841H50.8717ZM55.8272 55.7568C55.3052 55.7568 54.9279 55.5568 54.6954 55.1567C54.4629 54.7567 54.3467 54.2212 54.3467 53.5503C54.3467 53.231 54.3722 52.9431 54.4231 52.6864C54.4741 52.4298 54.5557 52.1984 54.6678 51.9923C54.78 51.7862 54.934 51.6275 55.1297 51.5164C55.3256 51.4053 55.558 51.3498 55.8272 51.3498C56.1861 51.3498 56.4798 51.4508 56.7082 51.6528C56.9366 51.8549 57.0946 52.1136 57.1823 52.4288C57.27 52.744 57.3138 53.1178 57.3138 53.5503C57.3138 53.8736 57.2883 54.1636 57.2374 54.4202C57.1864 54.6768 57.1048 54.9072 56.9926 55.1113C56.8805 55.3153 56.7265 55.474 56.5307 55.5871C56.335 55.7003 56.1005 55.7568 55.8272 55.7568ZM55.8272 55.3628C56.0882 55.3628 56.2993 55.28 56.4604 55.1143C56.6215 54.9486 56.7306 54.7384 56.7877 54.4838C56.8448 54.2292 56.8734 53.918 56.8734 53.5503C56.8734 53.2835 56.857 53.0461 56.8244 52.838C56.7917 52.6299 56.7367 52.4419 56.6592 52.2742C56.5817 52.1065 56.4737 51.9772 56.335 51.8862C56.1963 51.7953 56.027 51.7498 55.8272 51.7498C55.1338 51.7498 54.7871 52.35 54.7871 53.5503C54.7871 54.1161 54.8656 54.5596 55.0226 54.8809C55.1797 55.2022 55.4478 55.3628 55.8272 55.3628ZM58.0969 55.6841C58.0806 55.5548 58.0725 55.4638 58.0725 55.4113C58.0725 55.2093 58.1132 55.0204 58.1948 54.8446C58.2764 54.6688 58.3814 54.5172 58.5099 54.3899C58.6383 54.2626 58.7822 54.1414 58.9412 54.0261C59.1002 53.9109 59.2583 53.8008 59.4154 53.6958C59.5723 53.5907 59.7151 53.4846 59.8436 53.3775C59.9721 53.2704 60.077 53.1471 60.1586 53.0077C60.2402 52.8683 60.281 52.7218 60.281 52.5682C60.281 52.3298 60.1984 52.1338 60.0332 51.9802C59.868 51.8266 59.6529 51.7498 59.3877 51.7498C59.192 51.7498 59.0094 51.8034 58.8402 51.9105C58.671 52.0175 58.5313 52.158 58.4212 52.3318L58.1091 52.1197C58.2356 51.8933 58.414 51.7084 58.6445 51.5649C58.8749 51.4215 59.1308 51.3498 59.4123 51.3498C59.8079 51.3498 60.125 51.4629 60.3636 51.6892C60.6022 51.9155 60.7215 52.2005 60.7215 52.5439C60.7215 52.738 60.6817 52.9188 60.6022 53.0866C60.5226 53.2542 60.4187 53.3997 60.2901 53.523C60.1617 53.6462 60.02 53.7634 59.865 53.8746C59.71 53.9857 59.555 54.0928 59.4 54.1959C59.2451 54.2989 59.1033 54.4041 58.9748 54.5111C58.8464 54.6182 58.7413 54.7394 58.6597 54.8748C58.5782 55.0102 58.5374 55.1546 58.5374 55.3082H60.7888V55.6841H58.0969ZM61.5168 55.6841V55.3082H62.4834V52.1803L62.4895 51.9438H62.4774C62.4488 52.0004 62.3774 52.0853 62.2632 52.1984L61.8044 52.647L61.5352 52.3803L62.5079 51.4225H62.8995V55.3082H63.8478V55.6841H61.5168Z" fill="#1A1A18"/>
</g>
<defs>
<clipPath id="clip0_326_1170">
<rect width="102" height="56" fill="white"/>
</clipPath>
</defs>
</svg>
