<svg width="102" height="56" viewBox="0 0 102 56" fill="none" xmlns="http://www.w3.org/2000/svg">
<g clip-path="url(#clip0_326_751)">
<path d="M0.245239 45.246V36.9798H3.21808C3.99337 36.9798 4.61814 37.168 5.09211 37.5445C5.56608 37.9207 5.80287 38.4427 5.80287 39.1102C5.80287 39.4984 5.71298 39.8476 5.5327 40.1582C5.35269 40.4686 5.10587 40.7092 4.79238 40.88V40.9033C5.23108 41.0275 5.56608 41.2721 5.79711 41.6367C6.02821 42.0015 6.14371 42.4053 6.14371 42.8476C6.14371 43.6317 5.86964 44.2273 5.3212 44.6349C4.77284 45.0422 4.08744 45.246 3.26493 45.246H0.245239ZM1.76085 40.356H3.22968C3.55082 40.356 3.8037 40.2572 3.98761 40.0593C4.17171 39.8612 4.26384 39.6072 4.26384 39.2965C4.26384 38.9938 4.17171 38.7474 3.98761 38.5572C3.8037 38.3672 3.54319 38.272 3.20626 38.272H1.76085V40.356ZM1.76085 43.9539H3.38237C3.75845 43.9539 4.05428 43.8432 4.26968 43.6219C4.485 43.4006 4.59275 43.1116 4.59275 42.7544C4.59275 42.4053 4.485 42.1201 4.26968 41.8987C4.05428 41.6775 3.75845 41.5669 3.38237 41.5669H1.76085V43.9539ZM10.5371 45.246V36.9798H13.2866C13.9916 36.9798 14.5166 37.0535 14.8612 37.2008C15.2999 37.3794 15.6446 37.6627 15.8951 38.0507C16.1459 38.4389 16.2712 38.9086 16.2712 39.4596C16.2712 39.9642 16.1459 40.424 15.8951 40.8393C15.6446 41.2546 15.3038 41.5474 14.8728 41.7182V41.7417C14.9434 41.827 15.0336 41.9706 15.143 42.1722L16.8585 45.246H15.1548L13.51 42.1608H12.0528V45.246H10.5371ZM12.0528 40.8568H13.4159C13.8231 40.8568 14.1444 40.7385 14.3793 40.5016C14.6145 40.2648 14.732 39.9449 14.732 39.5411C14.732 38.9667 14.5125 38.5904 14.0738 38.4117C13.8624 38.3185 13.5568 38.272 13.1573 38.272H12.0528V40.8568ZM19.9947 45.246L22.9204 36.9798H24.5184L27.4441 45.246H25.8931L25.1766 43.1272H22.2506L21.5457 45.246H19.9947ZM22.6268 41.9045H24.8005L24.0602 39.6925L23.7313 38.4117H23.7078C23.5823 38.955 23.4726 39.382 23.3786 39.6925L22.6268 41.9045ZM31.1678 42.2772V36.9798H32.6837V42.2655C32.6837 42.8165 32.85 43.2454 33.183 43.5519C33.5159 43.8587 33.9644 44.012 34.5283 44.012C35.0924 44.012 35.5407 43.8587 35.8737 43.5519C36.2066 43.2454 36.3731 42.8165 36.3731 42.2655V36.9798H37.8888V42.2772C37.8888 43.2009 37.5813 43.9498 36.9665 44.5243C36.3516 45.0985 35.5426 45.3857 34.5401 45.3857C33.5296 45.3857 32.7149 45.0985 32.0961 44.5243C31.4772 43.9498 31.1678 43.2009 31.1678 42.2772ZM42.6699 45.246V36.9798H44.1855L47.3463 41.7532C47.4404 41.9007 47.5443 42.0813 47.6576 42.2947C47.7713 42.5081 47.8632 42.6846 47.9339 42.8244L48.0395 43.0339H48.0632C48.0083 42.5061 47.9808 42.0791 47.9808 41.7532V36.9798H49.4848V45.246H47.9808L44.8202 40.4842C44.7262 40.3366 44.6222 40.1563 44.5086 39.9427C44.395 39.7293 44.3033 39.5528 44.2326 39.4129L44.1267 39.2034H44.1033C44.1581 39.7312 44.1855 40.1582 44.1855 40.4842V45.246H42.6699ZM53.8782 41.0546C53.8782 39.8593 54.2835 38.858 55.0944 38.0507C55.9051 37.2437 56.9371 36.8399 58.1905 36.8399C59.4439 36.8399 60.4759 37.2437 61.2865 38.0507C62.0974 38.858 62.5027 39.8593 62.5027 41.0546C62.5027 42.281 62.0974 43.3096 61.2865 44.1399C60.4759 44.9705 59.4439 45.3857 58.1905 45.3857C56.9371 45.3857 55.9051 44.9705 55.0944 44.1399C54.2835 43.3096 53.8782 42.281 53.8782 41.0546ZM55.4411 41.0546C55.4411 41.9007 55.7016 42.605 56.2224 43.1678C56.7432 43.7307 57.3994 44.012 58.1905 44.012C58.9817 44.012 59.6377 43.7307 60.1586 43.1678C60.6796 42.605 60.9399 41.9007 60.9399 41.0546C60.9399 40.2475 60.6796 39.5722 60.1586 39.0287C59.6377 38.4854 58.9817 38.2139 58.1905 38.2139C57.3994 38.2139 56.7432 38.4854 56.2224 39.0287C55.7016 39.5722 55.4411 40.2475 55.4411 41.0546ZM68.7526 45.246L65.7445 36.9798H67.3778L69.2108 42.3703L69.5279 43.5812H69.5516C69.6611 43.0922 69.7669 42.6887 69.8688 42.3703L71.7254 36.9798H73.335L70.327 45.246H68.7526ZM77.2584 45.246V36.9798H78.774V45.246H77.2584ZM83.1675 41.0778C83.1675 39.867 83.5709 38.858 84.3776 38.0507C85.1844 37.2437 86.2106 36.8399 87.4562 36.8399C88.7252 36.8399 89.7513 37.2164 90.5347 37.9693L89.8062 39.087C89.5007 38.831 89.1423 38.6212 88.731 38.4583C88.3198 38.2953 87.9184 38.2139 87.5266 38.2139C86.6492 38.2139 85.9639 38.4854 85.4703 39.0287C84.977 39.5722 84.7302 40.2475 84.7302 41.0546C84.7302 41.8696 84.9809 42.5662 85.4821 43.1446C85.9834 43.7227 86.6688 44.012 87.5384 44.012C88.4315 44.012 89.2383 43.6626 89.959 42.964L90.7579 44.047C89.8726 44.9395 88.78 45.3857 87.4797 45.3857C86.1872 45.3857 85.1452 44.9783 84.3541 44.1634C83.5629 43.3484 83.1675 42.3198 83.1675 41.0778ZM94.9163 45.246V36.9798H96.4319V40.4842H100.251V36.9798H101.755V45.246H100.251V41.7765H96.4319V45.246H94.9163Z" fill="black"/>
<path fill-rule="evenodd" clip-rule="evenodd" d="M56.3876 6.73567C54.061 5.6752 48.7254 5.28133 45.633 6.7163L45.288 7.10026C45.0108 7.50355 44.7959 7.9661 44.7969 8.4628C44.7972 8.59674 44.8099 8.7306 44.8347 8.86226C45.0288 9.89142 45.9181 10.6629 46.804 11.1422C48.0435 11.813 49.5472 12.0954 50.9506 12.0925C52.3539 12.0898 53.8565 11.8015 55.0932 11.1257C55.9771 10.6427 56.8633 9.86773 57.0532 8.83778C57.0775 8.70608 57.0897 8.57207 57.0894 8.43816C57.0885 7.92352 56.9094 7.44534 56.6059 7.03267L56.3876 6.73567ZM44.9845 6.86711C43.1416 5.67506 37.1807 4.8819 34.7196 4.71732C29.268 4.35274 30.1887 1.69184 25.085 0.243158L25.3957 0.392942C28.6153 1.18651 28.5614 3.99622 31.1679 5.14591C34.8892 6.78727 41.4701 6.71623 44.6426 10.4917C44.6292 10.6564 44.6227 10.8324 44.6223 11.0169L44.6326 11.0168C44.78 11.0148 44.9274 11.0255 45.0733 11.0468L45.3465 11.0659L45.3561 11.0678C48.2974 11.6513 50.4328 15.8295 50.9734 18.4882C50.985 18.5455 50.9964 18.6058 51.0074 18.6682C51.0183 18.6058 51.0297 18.5455 51.0413 18.4882C51.5819 15.8293 53.7174 11.6513 56.6589 11.0678L56.6684 11.0659L56.9413 11.0469C57.069 11.0282 57.1979 11.0178 57.3269 11.0167C57.3287 10.8507 57.326 10.691 57.3182 10.5397C60.4751 6.71597 67.0952 6.7941 70.8321 5.14591C73.4386 3.99622 73.3847 1.18651 76.6044 0.392942L76.9151 0.243158C71.8114 1.69184 72.7321 4.35274 67.2804 4.71732C64.7813 4.88438 58.6599 5.59631 56.9184 6.81284C57.2624 7.29413 57.4715 7.84354 57.4727 8.43738C57.473 8.59445 57.4588 8.75153 57.4303 8.906C57.2183 10.0561 56.2692 10.9169 55.2783 11.4583C53.9843 12.1653 52.4201 12.4695 50.9513 12.4724C49.4825 12.4753 47.9171 12.1774 46.6203 11.4756C45.6273 10.9383 44.6747 10.0812 44.458 8.93203C44.4288 8.77758 44.414 8.62065 44.4136 8.46358C44.4124 7.88699 44.6483 7.35515 44.9712 6.88633L44.9845 6.86711ZM44.6268 11.3185C44.692 13.3764 45.434 16.3056 46.2085 17.4881C47.5133 19.4802 46.185 21.4752 47.8524 23.8367C48.2133 24.3478 48.6484 24.5008 49.0818 24.4819L49.3996 24.2703C51.7885 22.6706 50.4404 17.676 49.4208 15.5974C48.4299 13.577 46.9906 11.7188 44.6268 11.3185ZM50.0592 24.2112C50.4789 24.0212 50.8262 23.7995 51.0023 23.788C51.1844 23.7999 51.5447 24.0367 51.9778 24.2307C51.4668 23.7905 51.1668 23.0601 51.0074 22.2453C50.8504 23.0484 50.5567 23.7692 50.0592 24.2112ZM52.9405 24.4831C53.3552 24.4906 53.7705 24.3316 54.1199 23.8367C55.7874 21.4752 54.4591 19.4802 55.7638 17.4881C56.5212 16.3319 57.2329 13.4207 57.3187 11.3309C54.9962 11.7556 53.5753 13.5967 52.5939 15.5974C51.5739 17.6769 50.2265 22.6692 52.6152 24.2703L52.9405 24.4831Z" fill="black"/>
<path d="M38.1523 55.6843V51.4228H40.5689V51.7986H38.5745V53.3504H40.208V53.7263H38.5745V55.3085H40.6852V55.6843H38.1523ZM41.248 55.2115L41.4989 54.8903C41.6416 55.0276 41.8119 55.1398 42.0097 55.2267C42.2075 55.3136 42.4084 55.3569 42.6124 55.3569C42.8693 55.3569 43.0783 55.2903 43.2394 55.1569C43.4005 55.0236 43.4811 54.8478 43.4811 54.6295C43.4811 54.4841 43.4413 54.3557 43.3618 54.2446C43.2823 54.1335 43.1803 54.0405 43.0559 53.9658C42.9314 53.891 42.7929 53.8202 42.6399 53.7535C42.4869 53.6869 42.3339 53.6172 42.181 53.5445C42.0281 53.4717 41.8894 53.3919 41.765 53.305C41.6407 53.2181 41.5386 53.105 41.4591 52.9655C41.3796 52.8261 41.3398 52.6675 41.3398 52.4896C41.3398 52.1461 41.4683 51.8703 41.7253 51.6622C41.9822 51.454 42.3044 51.35 42.6918 51.35C43.1527 51.35 43.532 51.4874 43.8298 51.7622L43.6218 52.1138C43.5035 52.0047 43.3587 51.9168 43.1874 51.8501C43.0161 51.7834 42.8448 51.7501 42.6735 51.7501C42.4207 51.7501 42.2075 51.8148 42.0342 51.9441C41.8609 52.0734 41.7742 52.2471 41.7742 52.4654C41.7742 52.6028 41.814 52.725 41.8935 52.8321C41.9731 52.9392 42.075 53.0271 42.1994 53.0958C42.3238 53.1646 42.4625 53.2312 42.6154 53.2959C42.7683 53.3606 42.9213 53.4293 43.0742 53.502C43.2272 53.5747 43.3658 53.6556 43.4902 53.7445C43.6147 53.8335 43.7166 53.9495 43.7961 54.093C43.8757 54.2365 43.9154 54.4012 43.9154 54.5871C43.9154 54.9266 43.7971 55.2064 43.5606 55.4267C43.3241 55.647 43.0039 55.7571 42.6001 55.7571C42.0658 55.7571 41.6151 55.5752 41.248 55.2115ZM45.8732 55.6843V51.7986H44.3315V51.4228H47.8432V51.7986H46.2953V55.6843H45.8732ZM48.0083 55.6843V55.1812H48.5099V55.6843H48.0083ZM50.8715 55.6843C50.8552 55.555 50.847 55.4641 50.847 55.4116C50.847 55.2095 50.8878 55.0206 50.9693 54.8448C51.0509 54.669 51.1559 54.5174 51.2844 54.3901C51.4128 54.2628 51.5567 54.1416 51.7158 54.0264C51.8748 53.9112 52.0328 53.8011 52.1898 53.696C52.3468 53.591 52.4896 53.4849 52.6181 53.3777C52.7466 53.2706 52.8516 53.1474 52.9332 53.0079C53.0147 52.8685 53.0555 52.722 53.0555 52.5684C53.0555 52.33 52.9729 52.134 52.8077 51.9805C52.6426 51.8268 52.4274 51.7501 52.1623 51.7501C51.9665 51.7501 51.784 51.8036 51.6147 51.9107C51.4455 52.0178 51.3058 52.1583 51.1957 52.332L50.8837 52.1199C51.0101 51.8935 51.1885 51.7087 51.419 51.5652C51.6495 51.4217 51.9054 51.35 52.1868 51.35C52.5825 51.35 52.8995 51.4631 53.1381 51.6894C53.3768 51.9158 53.496 52.2007 53.496 52.5442C53.496 52.7382 53.4562 52.9191 53.3768 53.0868C53.2971 53.2545 53.1932 53.3999 53.0647 53.5232C52.9362 53.6465 52.7945 53.7637 52.6395 53.8749C52.4845 53.986 52.3295 54.093 52.1746 54.1961C52.0196 54.2992 51.8778 54.4043 51.7493 54.5114C51.6209 54.6184 51.5159 54.7397 51.4342 54.875C51.3527 55.0104 51.3119 55.1549 51.3119 55.3085H53.5633V55.6843H50.8715ZM55.8269 55.7571C55.305 55.7571 54.9276 55.557 54.6951 55.1569C54.4627 54.7569 54.3464 54.2214 54.3464 53.5505C54.3464 53.2312 54.372 52.9433 54.4229 52.6867C54.4739 52.43 54.5554 52.1986 54.6676 51.9926C54.7797 51.7864 54.9337 51.6278 55.1295 51.5167C55.3253 51.4055 55.5578 51.35 55.8269 51.35C56.1859 51.35 56.4795 51.451 56.7079 51.6531C56.9363 51.8551 57.0944 52.1138 57.182 52.4291C57.2698 52.7443 57.3136 53.1181 57.3136 53.5505C57.3136 53.8738 57.2881 54.1638 57.2371 54.4204C57.1861 54.677 57.1045 54.9074 56.9924 55.1115C56.8802 55.3156 56.7262 55.4742 56.5305 55.5874C56.3347 55.7005 56.1003 55.7571 55.8269 55.7571ZM55.8269 55.3631C56.088 55.3631 56.2991 55.2802 56.4601 55.1145C56.6212 54.9488 56.7303 54.7386 56.7875 54.4841C56.8445 54.2295 56.8731 53.9183 56.8731 53.5505C56.8731 53.2838 56.8567 53.0464 56.8242 52.8382C56.7915 52.6301 56.7365 52.4422 56.6589 52.2745C56.5815 52.1067 56.4734 51.9774 56.3347 51.8864C56.196 51.7955 56.0268 51.7501 55.8269 51.7501C55.1336 51.7501 54.7869 52.3502 54.7869 53.5505C54.7869 54.1163 54.8654 54.5599 55.0224 54.8811C55.1794 55.2024 55.4476 55.3631 55.8269 55.3631ZM58.0967 55.6843C58.0803 55.555 58.0722 55.4641 58.0722 55.4116C58.0722 55.2095 58.113 55.0206 58.1945 54.8448C58.2761 54.669 58.3812 54.5174 58.5097 54.3901C58.6381 54.2628 58.7819 54.1416 58.9409 54.0264C59.1 53.9112 59.258 53.8011 59.4151 53.696C59.5721 53.591 59.7148 53.4849 59.8433 53.3777C59.9718 53.2706 60.0768 53.1474 60.1583 53.0079C60.24 52.8685 60.2808 52.722 60.2808 52.5684C60.2808 52.33 60.1982 52.134 60.033 51.9805C59.8678 51.8268 59.6526 51.7501 59.3875 51.7501C59.1918 51.7501 59.0092 51.8036 58.84 51.9107C58.6707 52.0178 58.5311 52.1583 58.4209 52.332L58.1089 52.1199C58.2353 51.8935 58.4138 51.7087 58.6443 51.5652C58.8747 51.4217 59.1306 51.35 59.412 51.35C59.8076 51.35 60.1248 51.4631 60.3633 51.6894C60.6019 51.9158 60.7212 52.2007 60.7212 52.5442C60.7212 52.7382 60.6815 52.9191 60.6019 53.0868C60.5224 53.2545 60.4184 53.3999 60.2899 53.5232C60.1614 53.6465 60.0198 53.7637 59.8647 53.8749C59.7098 53.986 59.5548 54.093 59.3998 54.1961C59.2448 54.2992 59.1031 54.4043 58.9746 54.5114C58.8462 54.6184 58.741 54.7397 58.6595 54.875C58.578 55.0104 58.5372 55.1549 58.5372 55.3085H60.7885V55.6843H58.0967ZM61.5166 55.6843V55.3085H62.4832V52.1805L62.4893 51.9441H62.4771C62.4486 52.0006 62.3772 52.0855 62.2629 52.1986L61.8041 52.6473L61.5349 52.3805L62.5077 51.4228H62.8992V55.3085H63.8475V55.6843H61.5166Z" fill="black"/>
</g>
<defs>
<clipPath id="clip0_326_751">
<rect width="102" height="56" fill="white"/>
</clipPath>
</defs>
</svg>
